STARTFONT 2.1
FONT -ibm-courier-medium-o-normal--10-100-100-100-m-71-iso8859-2
SIZE 10 100 100
FONTBOUNDINGBOX 12 15 -1 -2
COMMENT $Header: courO10.bdf,v 1.1 96/01/22 23:46:55 peterlin Exp $
COMMENT 
COMMENT Copyright International Business Machines,Corp. 1991
COMMENT IBM Courier is a Trademark of the IBM Corporation.
COMMENT 
COMMENT Automatic rendering from Adobe Type 1 outline:
COMMENT Primoz Peterlin <primoz.peterlin@biofiz.mf.uni-lj.si>
COMMENT couri.pfa rendered at 11.000000 points
COMMENT Checksum eb69a063
STARTPROPERTIES 3
FONT_ASCENT 12
FONT_DESCENT 2
DEFAULT_CHAR 32
ENDPROPERTIES
CHARS 191
STARTCHAR space
ENCODING 32
SWIDTH 586 0
DWIDTH 9 0
BBX 0 0 0 1
BITMAP
ENDCHAR
STARTCHAR exclam
ENCODING 33
SWIDTH 586 0
DWIDTH 9 0
BBX 3 8 4 1
BITMAP
20
20
40
40
40
40
c0
c0
ENDCHAR
STARTCHAR quotedbl
ENCODING 34
SWIDTH 586 0
DWIDTH 9 0
BBX 4 4 4 5
BITMAP
50
f0
f0
a0
ENDCHAR
STARTCHAR numbersign
ENCODING 35
SWIDTH 586 0
DWIDTH 9 0
BBX 8 11 1 0
BITMAP
12
12
12
12
7f
24
24
fe
48
48
48
ENDCHAR
STARTCHAR dollar
ENCODING 36
SWIDTH 586 0
DWIDTH 9 0
BBX 7 12 2 -1
BITMAP
08
08
36
54
50
30
1c
14
ac
f0
20
20
ENDCHAR
STARTCHAR percent
ENCODING 37
SWIDTH 586 0
DWIDTH 9 0
BBX 7 9 2 1
BITMAP
70
88
98
7e
f0
dc
22
22
1c
ENDCHAR
STARTCHAR ampersand
ENCODING 38
SWIDTH 586 0
DWIDTH 9 0
BBX 6 8 2 1
BITMAP
1c
20
20
24
54
98
98
e8
ENDCHAR
STARTCHAR quoteright
ENCODING 39
SWIDTH 586 0
DWIDTH 9 0
BBX 3 4 4 5
BITMAP
60
40
80
80
ENDCHAR
STARTCHAR parenleft
ENCODING 40
SWIDTH 586 0
DWIDTH 9 0
BBX 4 11 5 0
BITMAP
10
20
40
40
80
80
80
80
80
80
80
ENDCHAR
STARTCHAR parenright
ENCODING 41
SWIDTH 586 0
DWIDTH 9 0
BBX 4 11 2 0
BITMAP
20
10
10
10
10
10
10
20
20
40
80
ENDCHAR
STARTCHAR asterisk
ENCODING 42
SWIDTH 586 0
DWIDTH 9 0
BBX 7 5 3 4
BITMAP
10
52
7c
30
58
ENDCHAR
STARTCHAR plus
ENCODING 43
SWIDTH 586 0
DWIDTH 9 0
BBX 7 7 2 2
BITMAP
10
10
10
fe
10
10
10
ENDCHAR
STARTCHAR comma
ENCODING 44
SWIDTH 586 0
DWIDTH 9 0
BBX 3 4 3 -1
BITMAP
60
40
c0
80
ENDCHAR
STARTCHAR minus
ENCODING 45
SWIDTH 586 0
DWIDTH 9 0
BBX 7 1 2 5
BITMAP
fe
ENDCHAR
STARTCHAR period
ENCODING 46
SWIDTH 586 0
DWIDTH 9 0
BBX 2 2 4 1
BITMAP
c0
c0
ENDCHAR
STARTCHAR slash
ENCODING 47
SWIDTH 586 0
DWIDTH 9 0
BBX 9 13 1 -1
BITMAP
0080
0100
0100
0200
0400
0400
0800
1000
1000
2000
4000
c000
8000
ENDCHAR
STARTCHAR zero
ENCODING 48
SWIDTH 586 0
DWIDTH 9 0
BBX 7 9 2 1
BITMAP
1c
22
42
42
82
84
84
88
70
ENDCHAR
STARTCHAR one
ENCODING 49
SWIDTH 586 0
DWIDTH 9 0
BBX 6 9 2 1
BITMAP
18
28
08
08
10
10
10
10
fc
ENDCHAR
STARTCHAR two
ENCODING 50
SWIDTH 586 0
DWIDTH 9 0
BBX 8 9 1 1
BITMAP
1e
21
01
02
04
08
30
42
fc
ENDCHAR
STARTCHAR three
ENCODING 51
SWIDTH 586 0
DWIDTH 9 0
BBX 6 9 2 1
BITMAP
3c
04
04
08
3c
04
04
08
f0
ENDCHAR
STARTCHAR four
ENCODING 52
SWIDTH 586 0
DWIDTH 9 0
BBX 6 9 2 1
BITMAP
04
0c
14
24
48
48
fc
10
38
ENDCHAR
STARTCHAR five
ENCODING 53
SWIDTH 586 0
DWIDTH 9 0
BBX 8 9 1 1
BITMAP
1f
20
20
3c
22
02
02
04
78
ENDCHAR
STARTCHAR six
ENCODING 54
SWIDTH 586 0
DWIDTH 9 0
BBX 7 9 2 1
BITMAP
1e
20
40
78
c4
84
84
88
70
ENDCHAR
STARTCHAR seven
ENCODING 55
SWIDTH 586 0
DWIDTH 9 0
BBX 6 9 3 1
BITMAP
fc
88
08
08
10
20
20
40
40
ENDCHAR
STARTCHAR eight
ENCODING 56
SWIDTH 586 0
DWIDTH 9 0
BBX 7 9 2 1
BITMAP
1c
62
42
44
38
44
84
88
70
ENDCHAR
STARTCHAR nine
ENCODING 57
SWIDTH 586 0
DWIDTH 9 0
BBX 7 9 2 1
BITMAP
1c
22
42
46
3a
04
0c
18
e0
ENDCHAR
STARTCHAR colon
ENCODING 58
SWIDTH 586 0
DWIDTH 9 0
BBX 3 6 4 1
BITMAP
60
60
00
00
c0
c0
ENDCHAR
STARTCHAR semicolon
ENCODING 59
SWIDTH 586 0
DWIDTH 9 0
BBX 5 7 2 0
BITMAP
18
18
00
30
20
60
40
ENDCHAR
STARTCHAR less
ENCODING 60
SWIDTH 586 0
DWIDTH 9 0
BBX 7 7 2 2
BITMAP
06
18
20
c0
30
0c
02
ENDCHAR
STARTCHAR equal
ENCODING 61
SWIDTH 586 0
DWIDTH 9 0
BBX 7 3 2 4
BITMAP
fe
00
fe
ENDCHAR
STARTCHAR greater
ENCODING 62
SWIDTH 586 0
DWIDTH 9 0
BBX 7 7 2 2
BITMAP
c0
30
08
06
38
e0
80
ENDCHAR
STARTCHAR question
ENCODING 63
SWIDTH 586 0
DWIDTH 9 0
BBX 6 8 3 1
BITMAP
f8
04
0c
30
40
00
c0
c0
ENDCHAR
STARTCHAR at
ENCODING 64
SWIDTH 586 0
DWIDTH 9 0
BBX 9 8 1 1
BITMAP
1e00
2100
4e80
9480
a580
ad00
d600
7c00
ENDCHAR
STARTCHAR A
ENCODING 65
SWIDTH 586 0
DWIDTH 9 0
BBX 9 8 0 1
BITMAP
1e00
0a00
0a00
0a00
1f00
2100
4100
e380
ENDCHAR
STARTCHAR B
ENCODING 66
SWIDTH 586 0
DWIDTH 9 0
BBX 8 8 1 1
BITMAP
7f
21
23
3e
41
41
42
fc
ENDCHAR
STARTCHAR C
ENCODING 67
SWIDTH 586 0
DWIDTH 9 0
BBX 8 8 2 1
BITMAP
1f
61
40
80
80
80
82
7c
ENDCHAR
STARTCHAR D
ENCODING 68
SWIDTH 586 0
DWIDTH 9 0
BBX 9 8 0 1
BITMAP
3f00
1080
1080
1080
2080
2080
2100
7e00
ENDCHAR
STARTCHAR E
ENCODING 69
SWIDTH 586 0
DWIDTH 9 0
BBX 9 8 1 1
BITMAP
3f80
1080
1200
3c00
2400
2100
2100
fe00
ENDCHAR
STARTCHAR F
ENCODING 70
SWIDTH 586 0
DWIDTH 9 0
BBX 9 8 1 1
BITMAP
3f80
1080
2200
3c00
2400
2000
2000
f000
ENDCHAR
STARTCHAR G
ENCODING 71
SWIDTH 586 0
DWIDTH 9 0
BBX 9 8 1 1
BITMAP
1f80
2100
4100
8000
8700
8200
c200
3c00
ENDCHAR
STARTCHAR H
ENCODING 72
SWIDTH 586 0
DWIDTH 9 0
BBX 10 8 0 1
BITMAP
39c0
1080
2100
3f00
2100
2100
4200
e700
ENDCHAR
STARTCHAR I
ENCODING 73
SWIDTH 586 0
DWIDTH 9 0
BBX 8 8 1 1
BITMAP
3f
08
08
08
10
10
10
fc
ENDCHAR
STARTCHAR J
ENCODING 74
SWIDTH 586 0
DWIDTH 9 0
BBX 9 8 1 1
BITMAP
0f80
0200
0200
0200
8200
8400
8400
f800
ENDCHAR
STARTCHAR K
ENCODING 75
SWIDTH 586 0
DWIDTH 9 0
BBX 9 8 1 1
BITMAP
3b80
1200
1c00
3800
2800
2400
2400
e300
ENDCHAR
STARTCHAR L
ENCODING 76
SWIDTH 586 0
DWIDTH 9 0
BBX 8 8 1 1
BITMAP
3c
10
10
10
21
21
21
fe
ENDCHAR
STARTCHAR M
ENCODING 77
SWIDTH 586 0
DWIDTH 9 0
BBX 11 8 0 1
BITMAP
38e0
18c0
2940
2a80
2a80
4c80
4080
f380
ENDCHAR
STARTCHAR N
ENCODING 78
SWIDTH 586 0
DWIDTH 9 0
BBX 10 8 1 1
BITMAP
31c0
2880
2880
2480
2500
2500
2500
e200
ENDCHAR
STARTCHAR O
ENCODING 79
SWIDTH 586 0
DWIDTH 9 0
BBX 8 8 1 1
BITMAP
1e
21
41
81
81
82
46
38
ENDCHAR
STARTCHAR P
ENCODING 80
SWIDTH 586 0
DWIDTH 9 0
BBX 9 8 1 1
BITMAP
3f00
1080
1080
1100
3e00
2000
2000
f800
ENDCHAR
STARTCHAR Q
ENCODING 81
SWIDTH 586 0
DWIDTH 9 0
BBX 8 10 1 -1
BITMAP
1e
21
41
81
81
82
c6
78
20
5e
ENDCHAR
STARTCHAR R
ENCODING 82
SWIDTH 586 0
DWIDTH 9 0
BBX 8 8 1 1
BITMAP
7f
21
23
3c
48
44
44
e3
ENDCHAR
STARTCHAR S
ENCODING 83
SWIDTH 586 0
DWIDTH 9 0
BBX 8 9 1 1
BITMAP
01
1f
21
20
1c
02
82
c2
bc
ENDCHAR
STARTCHAR T
ENCODING 84
SWIDTH 586 0
DWIDTH 9 0
BBX 8 8 2 1
BITMAP
7f
89
89
10
10
10
10
78
ENDCHAR
STARTCHAR U
ENCODING 85
SWIDTH 586 0
DWIDTH 9 0
BBX 8 8 2 1
BITMAP
f7
42
42
82
82
84
84
78
ENDCHAR
STARTCHAR V
ENCODING 86
SWIDTH 586 0
DWIDTH 9 0
BBX 9 8 2 1
BITMAP
e380
4100
4200
4400
2400
2800
3000
3000
ENDCHAR
STARTCHAR W
ENCODING 87
SWIDTH 586 0
DWIDTH 9 0
BBX 9 8 2 1
BITMAP
e380
4900
5900
a900
aa00
aa00
ca00
8400
ENDCHAR
STARTCHAR X
ENCODING 88
SWIDTH 586 0
DWIDTH 9 0
BBX 10 8 0 1
BITMAP
39c0
1100
0a00
0400
0c00
3200
4300
f780
ENDCHAR
STARTCHAR Y
ENCODING 89
SWIDTH 586 0
DWIDTH 9 0
BBX 8 8 2 1
BITMAP
e7
44
28
38
10
10
20
f0
ENDCHAR
STARTCHAR Z
ENCODING 90
SWIDTH 586 0
DWIDTH 9 0
BBX 8 8 1 1
BITMAP
3f
22
04
08
10
22
42
fe
ENDCHAR
STARTCHAR bracketleft
ENCODING 91
SWIDTH 586 0
DWIDTH 9 0
BBX 5 12 4 -1
BITMAP
38
20
20
20
40
40
40
40
40
80
80
e0
ENDCHAR
STARTCHAR backslash
ENCODING 92
SWIDTH 586 0
DWIDTH 9 0
BBX 4 13 3 -1
BITMAP
80
80
40
40
40
40
40
20
20
20
20
10
10
ENDCHAR
STARTCHAR bracketright
ENCODING 93
SWIDTH 586 0
DWIDTH 9 0
BBX 5 12 1 -1
BITMAP
38
08
08
08
10
10
10
10
10
20
20
e0
ENDCHAR
STARTCHAR asciicircum
ENCODING 94
SWIDTH 586 0
DWIDTH 9 0
BBX 7 6 2 3
BITMAP
10
28
28
44
c4
86
ENDCHAR
STARTCHAR underscore
ENCODING 95
SWIDTH 586 0
DWIDTH 9 0
BBX 10 1 -1 -1
BITMAP
ffc0
ENDCHAR
STARTCHAR quoteleft
ENCODING 96
SWIDTH 586 0
DWIDTH 9 0
BBX 3 4 4 5
BITMAP
20
20
40
c0
ENDCHAR
STARTCHAR a
ENCODING 97
SWIDTH 586 0
DWIDTH 9 0
BBX 7 6 1 1
BITMAP
3e
02
3e
c4
84
7e
ENDCHAR
STARTCHAR b
ENCODING 98
SWIDTH 586 0
DWIDTH 9 0
BBX 9 9 0 1
BITMAP
3000
1000
1000
1f00
3080
2080
2080
2100
de00
ENDCHAR
STARTCHAR c
ENCODING 99
SWIDTH 586 0
DWIDTH 9 0
BBX 8 7 1 1
BITMAP
01
3f
41
80
80
82
7c
ENDCHAR
STARTCHAR d
ENCODING 100
SWIDTH 586 0
DWIDTH 9 0
BBX 8 9 1 1
BITMAP
03
01
01
3d
42
82
82
86
7b
ENDCHAR
STARTCHAR e
ENCODING 101
SWIDTH 586 0
DWIDTH 9 0
BBX 7 6 2 1
BITMAP
3c
42
fe
80
80
7c
ENDCHAR
STARTCHAR f
ENCODING 102
SWIDTH 586 0
DWIDTH 9 0
BBX 8 9 1 1
BITMAP
0f
10
10
7c
10
20
20
20
f8
ENDCHAR
STARTCHAR g
ENCODING 103
SWIDTH 586 0
DWIDTH 9 0
BBX 9 8 1 -1
BITMAP
3f80
4200
8200
8200
cc00
7400
0400
3800
ENDCHAR
STARTCHAR h
ENCODING 104
SWIDTH 586 0
DWIDTH 9 0
BBX 8 9 1 1
BITMAP
60
20
20
3e
22
22
42
42
ef
ENDCHAR
STARTCHAR i
ENCODING 105
SWIDTH 586 0
DWIDTH 9 0
BBX 6 10 2 1
BITMAP
08
08
00
00
38
10
10
10
10
fc
ENDCHAR
STARTCHAR j
ENCODING 106
SWIDTH 586 0
DWIDTH 9 0
BBX 7 12 1 -1
BITMAP
04
04
00
00
3e
04
04
04
04
04
08
f0
ENDCHAR
STARTCHAR k
ENCODING 107
SWIDTH 586 0
DWIDTH 9 0
BBX 8 9 1 1
BITMAP
20
20
20
27
28
30
48
44
ce
ENDCHAR
STARTCHAR l
ENCODING 108
SWIDTH 586 0
DWIDTH 9 0
BBX 6 9 2 1
BITMAP
38
08
08
08
08
10
10
10
fc
ENDCHAR
STARTCHAR m
ENCODING 109
SWIDTH 586 0
DWIDTH 9 0
BBX 9 6 0 1
BITMAP
7f80
2480
2480
2480
4880
ed80
ENDCHAR
STARTCHAR n
ENCODING 110
SWIDTH 586 0
DWIDTH 9 0
BBX 9 6 0 1
BITMAP
3f00
1100
1100
2100
2100
7780
ENDCHAR
STARTCHAR o
ENCODING 111
SWIDTH 586 0
DWIDTH 9 0
BBX 8 6 1 1
BITMAP
3e
41
81
81
c6
7c
ENDCHAR
STARTCHAR p
ENCODING 112
SWIDTH 586 0
DWIDTH 9 0
BBX 9 9 0 -2
BITMAP
2f00
1080
2080
2080
2100
5e00
4000
4000
f000
ENDCHAR
STARTCHAR q
ENCODING 113
SWIDTH 586 0
DWIDTH 9 0
BBX 9 8 1 -1
BITMAP
3f80
4300
8200
8200
c600
7a00
0400
1e00
ENDCHAR
STARTCHAR r
ENCODING 114
SWIDTH 586 0
DWIDTH 9 0
BBX 8 6 1 1
BITMAP
7f
10
10
20
20
f8
ENDCHAR
STARTCHAR s
ENCODING 115
SWIDTH 586 0
DWIDTH 9 0
BBX 7 6 2 1
BITMAP
7c
84
78
04
84
f8
ENDCHAR
STARTCHAR t
ENCODING 116
SWIDTH 586 0
DWIDTH 9 0
BBX 5 8 3 1
BITMAP
40
40
f8
40
80
80
80
f8
ENDCHAR
STARTCHAR u
ENCODING 117
SWIDTH 586 0
DWIDTH 9 0
BBX 6 6 2 1
BITMAP
cc
84
84
84
88
7c
ENDCHAR
STARTCHAR v
ENCODING 118
SWIDTH 586 0
DWIDTH 9 0
BBX 9 6 1 1
BITMAP
f380
6200
2200
2400
2800
3000
ENDCHAR
STARTCHAR w
ENCODING 119
SWIDTH 586 0
DWIDTH 9 0
BBX 9 6 1 1
BITMAP
e380
4900
5900
5a00
6a00
4400
ENDCHAR
STARTCHAR x
ENCODING 120
SWIDTH 586 0
DWIDTH 9 0
BBX 9 6 0 1
BITMAP
7380
1600
0800
1400
2200
e700
ENDCHAR
STARTCHAR y
ENCODING 121
SWIDTH 586 0
DWIDTH 9 0
BBX 8 9 2 -2
BITMAP
ef
44
84
84
8c
78
08
98
f0
ENDCHAR
STARTCHAR z
ENCODING 122
SWIDTH 586 0
DWIDTH 9 0
BBX 7 6 2 1
BITMAP
7e
44
18
20
44
fc
ENDCHAR
STARTCHAR braceleft
ENCODING 123
SWIDTH 586 0
DWIDTH 9 0
BBX 5 12 4 -1
BITMAP
18
20
20
20
20
c0
40
40
c0
80
80
60
ENDCHAR
STARTCHAR bar
ENCODING 124
SWIDTH 586 0
DWIDTH 9 0
BBX 1 13 5 -2
BITMAP
80
80
80
80
80
80
80
80
80
80
80
80
80
ENDCHAR
STARTCHAR braceright
ENCODING 125
SWIDTH 586 0
DWIDTH 9 0
BBX 4 12 2 -1
BITMAP
30
10
10
10
20
30
20
20
20
20
60
c0
ENDCHAR
STARTCHAR asciitilde
ENCODING 126
SWIDTH 586 0
DWIDTH 9 0
BBX 6 2 2 5
BITMAP
64
98
ENDCHAR
STARTCHAR space
ENCODING 160
SWIDTH 586 0
DWIDTH 9 0
BBX 0 0 0 1
BITMAP
ENDCHAR
STARTCHAR Aogonek
ENCODING 161
SWIDTH 586 0
DWIDTH 9 0
BBX 9 10 0 -1
BITMAP
1e00
0a00
0a00
0a00
1f00
2100
4100
e380
0200
0300
ENDCHAR
STARTCHAR breve
ENCODING 162
SWIDTH 586 0
DWIDTH 9 0
BBX 5 2 4 8
BITMAP
88
70
ENDCHAR
STARTCHAR Lslash
ENCODING 163
SWIDTH 586 0
DWIDTH 9 0
BBX 8 8 1 1
BITMAP
3c
10
1c
71
61
21
21
fe
ENDCHAR
STARTCHAR currency
ENCODING 164
SWIDTH 586 0
DWIDTH 9 0
BBX 7 7 2 2
BITMAP
44
7c
44
44
44
48
fe
ENDCHAR
STARTCHAR Lcaron
ENCODING 165
SWIDTH 586 0
DWIDTH 9 0
BBX 9 9 1 1
BITMAP
0100
3e00
1000
1000
1000
2100
2100
2100
fe00
ENDCHAR
STARTCHAR Sacute
ENCODING 166
SWIDTH 586 0
DWIDTH 9 0
BBX 8 11 1 1
BITMAP
02
04
01
1f
21
20
1c
02
82
c2
bc
ENDCHAR
STARTCHAR section
ENCODING 167
SWIDTH 586 0
DWIDTH 9 0
BBX 7 9 2 0
BITMAP
1e
22
30
48
44
24
18
88
f0
ENDCHAR
STARTCHAR dieresis
ENCODING 168
SWIDTH 586 0
DWIDTH 9 0
BBX 3 2 5 9
BITMAP
a0
a0
ENDCHAR
STARTCHAR Scaron
ENCODING 169
SWIDTH 586 0
DWIDTH 9 0
BBX 8 12 1 1
BITMAP
09
0b
06
01
1f
21
20
1c
02
82
c2
bc
ENDCHAR
STARTCHAR Scedilla
ENCODING 170
SWIDTH 586 0
DWIDTH 9 0
BBX 8 11 1 -1
BITMAP
01
1f
21
20
1c
02
82
c2
bc
10
38
ENDCHAR
STARTCHAR Tcaron
ENCODING 171
SWIDTH 586 0
DWIDTH 9 0
BBX 8 12 2 1
BITMAP
12
16
0c
00
7f
89
89
10
10
10
10
78
ENDCHAR
STARTCHAR Zacute
ENCODING 172
SWIDTH 586 0
DWIDTH 9 0
BBX 8 11 1 1
BITMAP
04
08
00
3f
22
04
08
10
22
42
fe
ENDCHAR
STARTCHAR hyphen
ENCODING 173
SWIDTH 586 0
DWIDTH 9 0
BBX 3 1 4 5
BITMAP
e0
ENDCHAR
STARTCHAR Zcaron
ENCODING 174
SWIDTH 586 0
DWIDTH 9 0
BBX 8 12 1 1
BITMAP
09
0b
06
00
3f
22
04
08
10
22
42
fe
ENDCHAR
STARTCHAR Zdotaccent
ENCODING 175
SWIDTH 586 0
DWIDTH 9 0
BBX 8 12 1 1
BITMAP
04
04
00
00
3f
22
04
08
10
22
42
fe
ENDCHAR
STARTCHAR degree
ENCODING 176
SWIDTH 586 0
DWIDTH 9 0
BBX 5 4 3 6
BITMAP
70
88
88
70
ENDCHAR
STARTCHAR aogonek
ENCODING 177
SWIDTH 586 0
DWIDTH 9 0
BBX 7 8 1 -1
BITMAP
3e
02
3e
c4
8c
76
0c
0c
ENDCHAR
STARTCHAR ogonek
ENCODING 178
SWIDTH 586 0
DWIDTH 9 0
BBX 3 2 3 -1
BITMAP
40
c0
ENDCHAR
STARTCHAR lslash
ENCODING 179
SWIDTH 586 0
DWIDTH 9 0
BBX 7 9 1 1
BITMAP
38
08
08
0c
70
50
10
10
fc
ENDCHAR
STARTCHAR acute
ENCODING 180
SWIDTH 586 0
DWIDTH 9 0
BBX 3 2 5 8
BITMAP
40
80
ENDCHAR
STARTCHAR lcaron
ENCODING 181
SWIDTH 586 0
DWIDTH 9 0
BBX 8 9 2 1
BITMAP
3a
0c
08
08
08
10
10
10
fc
ENDCHAR
STARTCHAR sacute
ENCODING 182
SWIDTH 586 0
DWIDTH 9 0
BBX 7 9 2 1
BITMAP
08
10
00
7c
84
78
04
84
f8
ENDCHAR
STARTCHAR caron
ENCODING 183
SWIDTH 586 0
DWIDTH 9 0
BBX 4 2 4 8
BITMAP
90
60
ENDCHAR
STARTCHAR cedilla
ENCODING 184
SWIDTH 586 0
DWIDTH 9 0
BBX 3 3 3 -1
BITMAP
40
60
e0
ENDCHAR
STARTCHAR scaron
ENCODING 185
SWIDTH 586 0
DWIDTH 9 0
BBX 7 9 2 1
BITMAP
24
18
00
7c
84
78
04
84
f8
ENDCHAR
STARTCHAR scedilla
ENCODING 186
SWIDTH 586 0
DWIDTH 9 0
BBX 7 8 2 -1
BITMAP
7c
84
78
04
84
f8
30
70
ENDCHAR
STARTCHAR tcaron
ENCODING 187
SWIDTH 586 0
DWIDTH 9 0
BBX 6 9 3 1
BITMAP
08
50
40
f8
40
80
80
80
f8
ENDCHAR
STARTCHAR zacute
ENCODING 188
SWIDTH 586 0
DWIDTH 9 0
BBX 7 9 2 1
BITMAP
08
10
00
7e
44
18
20
44
fc
ENDCHAR
STARTCHAR hungarumlaut
ENCODING 189
SWIDTH 586 0
DWIDTH 9 0
BBX 5 2 4 8
BITMAP
f0
a0
ENDCHAR
STARTCHAR zcaron
ENCODING 190
SWIDTH 586 0
DWIDTH 9 0
BBX 7 9 2 1
BITMAP
24
18
00
7e
44
18
20
44
fc
ENDCHAR
STARTCHAR zdotaccent
ENCODING 191
SWIDTH 586 0
DWIDTH 9 0
BBX 7 10 2 1
BITMAP
08
08
00
00
7e
44
18
20
44
fc
ENDCHAR
STARTCHAR Racute
ENCODING 192
SWIDTH 586 0
DWIDTH 9 0
BBX 8 11 1 1
BITMAP
02
04
00
7f
21
23
3c
48
44
44
e3
ENDCHAR
STARTCHAR Aacute
ENCODING 193
SWIDTH 586 0
DWIDTH 9 0
BBX 9 11 0 1
BITMAP
0200
0400
0000
1e00
0a00
0a00
0a00
1f00
2100
4100
e380
ENDCHAR
STARTCHAR Acircumflex
ENCODING 194
SWIDTH 586 0
DWIDTH 9 0
BBX 9 11 0 1
BITMAP
0600
0000
0000
1e00
0a00
0a00
0a00
1f00
2100
4100
e380
ENDCHAR
STARTCHAR Abreve
ENCODING 195
SWIDTH 586 0
DWIDTH 9 0
BBX 9 12 0 1
BITMAP
0c80
0d80
0700
0000
1e00
0a00
0a00
0a00
1f00
2100
4100
e380
ENDCHAR
STARTCHAR Adieresis
ENCODING 196
SWIDTH 586 0
DWIDTH 9 0
BBX 9 12 0 1
BITMAP
0500
0500
0000
0000
1e00
0a00
0a00
0a00
1f00
2100
4100
e380
ENDCHAR
STARTCHAR Lacute
ENCODING 197
SWIDTH 586 0
DWIDTH 9 0
BBX 8 11 1 1
BITMAP
08
10
00
3c
10
10
10
21
21
21
fe
ENDCHAR
STARTCHAR Cacute
ENCODING 198
SWIDTH 586 0
DWIDTH 9 0
BBX 8 11 2 1
BITMAP
04
08
00
1f
61
40
80
80
80
82
7c
ENDCHAR
STARTCHAR Ccedilla
ENCODING 199
SWIDTH 586 0
DWIDTH 9 0
BBX 8 10 2 -1
BITMAP
1f
61
40
80
80
80
82
7c
10
70
ENDCHAR
STARTCHAR Ccaron
ENCODING 200
SWIDTH 586 0
DWIDTH 9 0
BBX 8 12 2 1
BITMAP
12
16
0c
00
1f
61
40
80
80
80
82
7c
ENDCHAR
STARTCHAR Eacute
ENCODING 201
SWIDTH 586 0
DWIDTH 9 0
BBX 9 11 1 1
BITMAP
0200
0400
0000
3f80
1080
1200
3c00
2400
2100
2100
fe00
ENDCHAR
STARTCHAR Eogonek
ENCODING 202
SWIDTH 586 0
DWIDTH 9 0
BBX 9 10 1 -1
BITMAP
3f80
2080
2400
3c00
2400
2100
4100
fe00
0800
0c00
ENDCHAR
STARTCHAR Edieresis
ENCODING 203
SWIDTH 586 0
DWIDTH 9 0
BBX 9 12 1 1
BITMAP
0500
0500
0000
0000
3f80
1080
1200
3c00
2400
2100
2100
fe00
ENDCHAR
STARTCHAR Ecaron
ENCODING 204
SWIDTH 586 0
DWIDTH 9 0
BBX 9 12 1 1
BITMAP
0900
0b00
0600
0000
3f80
1080
1200
3c00
2400
2100
2100
fe00
ENDCHAR
STARTCHAR Iacute
ENCODING 205
SWIDTH 586 0
DWIDTH 9 0
BBX 8 11 1 1
BITMAP
04
08
00
3f
08
08
08
10
10
10
fc
ENDCHAR
STARTCHAR Icircumflex
ENCODING 206
SWIDTH 586 0
DWIDTH 9 0
BBX 8 11 1 1
BITMAP
06
00
00
3f
08
08
08
10
10
10
fc
ENDCHAR
STARTCHAR Dcaron
ENCODING 207
SWIDTH 586 0
DWIDTH 9 0
BBX 9 12 0 1
BITMAP
0480
0580
0300
0000
3f00
1080
1080
1080
2080
2080
2100
7e00
ENDCHAR
STARTCHAR Eth
ENCODING 208
SWIDTH 586 0
DWIDTH 9 0
BBX 9 8 0 1
BITMAP
3f00
1080
1080
7c80
2080
2080
2100
7e00
ENDCHAR
STARTCHAR Nacute
ENCODING 209
SWIDTH 586 0
DWIDTH 9 0
BBX 10 11 1 1
BITMAP
0200
0400
0000
31c0
2880
2880
2480
2500
2500
2500
e200
ENDCHAR
STARTCHAR Ncaron
ENCODING 210
SWIDTH 586 0
DWIDTH 9 0
BBX 10 12 1 1
BITMAP
0900
0b00
0600
0000
31c0
2880
2880
2480
2500
2500
2500
e200
ENDCHAR
STARTCHAR Oacute
ENCODING 211
SWIDTH 586 0
DWIDTH 9 0
BBX 8 11 1 1
BITMAP
02
04
00
1e
21
41
81
81
82
46
38
ENDCHAR
STARTCHAR Ocircumflex
ENCODING 212
SWIDTH 586 0
DWIDTH 9 0
BBX 8 11 1 1
BITMAP
06
00
00
1e
21
41
81
81
82
46
38
ENDCHAR
STARTCHAR Ohungarumlaut
ENCODING 213
SWIDTH 586 0
DWIDTH 9 0
BBX 9 11 1 1
BITMAP
0f00
0a00
0000
1e00
2100
4100
8100
8100
8200
4600
3800
ENDCHAR
STARTCHAR Odieresis
ENCODING 214
SWIDTH 586 0
DWIDTH 9 0
BBX 8 12 1 1
BITMAP
05
05
00
00
1e
21
41
81
81
82
46
38
ENDCHAR
STARTCHAR multiply
ENCODING 215
SWIDTH 586 0
DWIDTH 9 0
BBX 5 5 3 3
BITMAP
88
58
20
50
88
ENDCHAR
STARTCHAR Rcaron
ENCODING 216
SWIDTH 586 0
DWIDTH 9 0
BBX 8 12 1 1
BITMAP
09
0b
06
00
7f
21
23
3c
48
44
44
e3
ENDCHAR
STARTCHAR Uring
ENCODING 217
SWIDTH 586 0
DWIDTH 9 0
BBX 8 12 2 1
BITMAP
0c
0c
0c
00
f7
42
42
82
82
84
84
78
ENDCHAR
STARTCHAR Uacute
ENCODING 218
SWIDTH 586 0
DWIDTH 9 0
BBX 8 11 2 1
BITMAP
04
08
00
f7
42
42
82
82
84
84
78
ENDCHAR
STARTCHAR Uhungarumlaut
ENCODING 219
SWIDTH 586 0
DWIDTH 9 0
BBX 8 11 2 1
BITMAP
1e
14
00
f7
42
42
82
82
84
84
78
ENDCHAR
STARTCHAR Udieresis
ENCODING 220
SWIDTH 586 0
DWIDTH 9 0
BBX 8 12 2 1
BITMAP
0a
0a
00
00
f7
42
42
82
82
84
84
78
ENDCHAR
STARTCHAR Yacute
ENCODING 221
SWIDTH 586 0
DWIDTH 9 0
BBX 8 11 2 1
BITMAP
04
08
00
e7
44
28
38
10
10
20
f0
ENDCHAR
STARTCHAR Tcedilla
ENCODING 222
SWIDTH 586 0
DWIDTH 9 0
BBX 8 10 2 -1
BITMAP
7f
91
91
10
10
10
20
f8
30
70
ENDCHAR
STARTCHAR germandbls
ENCODING 223
SWIDTH 586 0
DWIDTH 9 0
BBX 8 10 1 1
BITMAP
0e
13
21
22
2c
24
22
42
42
dc
ENDCHAR
STARTCHAR racute
ENCODING 224
SWIDTH 586 0
DWIDTH 9 0
BBX 8 9 1 1
BITMAP
04
08
00
7f
10
10
20
20
f8
ENDCHAR
STARTCHAR aacute
ENCODING 225
SWIDTH 586 0
DWIDTH 9 0
BBX 7 9 1 1
BITMAP
04
08
00
3e
02
3e
c4
84
7e
ENDCHAR
STARTCHAR acircumflex
ENCODING 226
SWIDTH 586 0
DWIDTH 9 0
BBX 7 9 1 1
BITMAP
0c
00
00
3e
02
3e
c4
84
7e
ENDCHAR
STARTCHAR abreve
ENCODING 227
SWIDTH 586 0
DWIDTH 9 0
BBX 8 9 1 1
BITMAP
11
0e
00
3e
02
3e
c4
84
7e
ENDCHAR
STARTCHAR adieresis
ENCODING 228
SWIDTH 586 0
DWIDTH 9 0
BBX 7 10 1 1
BITMAP
0a
0a
00
00
3e
02
3e
c4
84
7e
ENDCHAR
STARTCHAR lacute
ENCODING 229
SWIDTH 586 0
DWIDTH 9 0
BBX 6 12 2 1
BITMAP
08
10
00
38
08
08
08
08
10
10
10
fc
ENDCHAR
STARTCHAR cacute
ENCODING 230
SWIDTH 586 0
DWIDTH 9 0
BBX 8 9 1 1
BITMAP
04
08
01
3f
41
80
80
82
7c
ENDCHAR
STARTCHAR ccedilla
ENCODING 231
SWIDTH 586 0
DWIDTH 9 0
BBX 7 9 2 -1
BITMAP
02
3e
42
80
80
84
78
20
70
ENDCHAR
STARTCHAR ccaron
ENCODING 232
SWIDTH 586 0
DWIDTH 9 0
BBX 8 9 1 1
BITMAP
12
0c
01
3f
41
80
80
82
7c
ENDCHAR
STARTCHAR eacute
ENCODING 233
SWIDTH 586 0
DWIDTH 9 0
BBX 7 9 2 1
BITMAP
08
10
00
3c
42
fe
80
80
7c
ENDCHAR
STARTCHAR eogonek
ENCODING 234
SWIDTH 586 0
DWIDTH 9 0
BBX 7 8 2 -1
BITMAP
3c
42
fe
80
80
7c
20
30
ENDCHAR
STARTCHAR edieresis
ENCODING 235
SWIDTH 586 0
DWIDTH 9 0
BBX 7 10 2 1
BITMAP
14
14
00
00
3c
42
fe
80
80
7c
ENDCHAR
STARTCHAR ecaron
ENCODING 236
SWIDTH 586 0
DWIDTH 9 0
BBX 7 9 2 1
BITMAP
24
18
00
3c
42
fe
80
80
7c
ENDCHAR
STARTCHAR iacute
ENCODING 237
SWIDTH 586 0
DWIDTH 9 0
BBX 6 9 2 1
BITMAP
08
10
00
38
10
10
10
10
fc
ENDCHAR
STARTCHAR icircumflex
ENCODING 238
SWIDTH 586 0
DWIDTH 9 0
BBX 6 9 2 1
BITMAP
18
00
00
38
10
10
10
10
fc
ENDCHAR
STARTCHAR dcaron
ENCODING 239
SWIDTH 586 0
DWIDTH 9 0
BBX 11 9 1 1
BITMAP
0340
0180
0100
3d00
4200
8200
8200
8600
7b00
ENDCHAR
STARTCHAR dbar
ENCODING 240
SWIDTH 586 0
DWIDTH 9 0
BBX 9 9 1 1
BITMAP
0f80
0f80
0100
3d00
4200
8200
8200
8600
7b00
ENDCHAR
STARTCHAR nacute
ENCODING 241
SWIDTH 586 0
DWIDTH 9 0
BBX 9 9 0 1
BITMAP
0200
0400
0000
3f00
1100
1100
2100
2100
7780
ENDCHAR
STARTCHAR ncaron
ENCODING 242
SWIDTH 586 0
DWIDTH 9 0
BBX 9 9 0 1
BITMAP
0900
0600
0000
3f00
1100
1100
2100
2100
7780
ENDCHAR
STARTCHAR oacute
ENCODING 243
SWIDTH 586 0
DWIDTH 9 0
BBX 8 9 1 1
BITMAP
04
08
00
3e
41
81
81
c6
7c
ENDCHAR
STARTCHAR ocircumflex
ENCODING 244
SWIDTH 586 0
DWIDTH 9 0
BBX 8 9 1 1
BITMAP
0c
00
00
3e
41
81
81
c6
7c
ENDCHAR
STARTCHAR ohungarumlaut
ENCODING 245
SWIDTH 586 0
DWIDTH 9 0
BBX 8 9 1 1
BITMAP
1e
14
00
3e
41
81
81
c6
7c
ENDCHAR
STARTCHAR odieresis
ENCODING 246
SWIDTH 586 0
DWIDTH 9 0
BBX 8 10 1 1
BITMAP
0a
0a
00
00
3e
41
81
81
c6
7c
ENDCHAR
STARTCHAR divide
ENCODING 247
SWIDTH 586 0
DWIDTH 9 0
BBX 7 7 2 2
BITMAP
10
00
00
fe
00
00
10
ENDCHAR
STARTCHAR rcaron
ENCODING 248
SWIDTH 586 0
DWIDTH 9 0
BBX 8 9 1 1
BITMAP
12
0c
00
7f
10
10
20
20
f8
ENDCHAR
STARTCHAR uring
ENCODING 249
SWIDTH 586 0
DWIDTH 9 0
BBX 6 10 2 1
BITMAP
18
28
18
00
cc
84
84
84
88
7c
ENDCHAR
STARTCHAR uacute
ENCODING 250
SWIDTH 586 0
DWIDTH 9 0
BBX 6 9 2 1
BITMAP
08
10
00
cc
84
84
84
88
7c
ENDCHAR
STARTCHAR uhungarumlaut
ENCODING 251
SWIDTH 586 0
DWIDTH 9 0
BBX 7 9 2 1
BITMAP
3c
28
00
cc
84
84
84
88
7c
ENDCHAR
STARTCHAR udieresis
ENCODING 252
SWIDTH 586 0
DWIDTH 9 0
BBX 6 10 2 1
BITMAP
14
14
00
00
cc
84
84
84
88
7c
ENDCHAR
STARTCHAR yacute
ENCODING 253
SWIDTH 586 0
DWIDTH 9 0
BBX 8 12 2 -2
BITMAP
08
10
00
ef
44
84
84
8c
78
08
98
f0
ENDCHAR
STARTCHAR tcedilla
ENCODING 254
SWIDTH 586 0
DWIDTH 9 0
BBX 5 10 3 -1
BITMAP
40
40
f8
40
80
80
80
f8
60
e0
ENDCHAR
STARTCHAR dotaccent
ENCODING 255
SWIDTH 586 0
DWIDTH 9 0
BBX 1 2 6 9
BITMAP
80
80
ENDCHAR
ENDFONT
